<svg viewBox="0 0 1920 96" xmlns="http://www.w3.org/2000/svg">
<g transform="translate(-1954 5243)">
<g transform="translate(1221 -6526.3)">
<g transform="translate(623.53 1260.9)">
<path transform="translate(.48 .389)" d="M0,0H2080V153.018H0Z" fill="#01579b"/>
</g>
<rect transform="translate(1343.4 1323.7) rotate(73)" width="372.76" height="372.76" fill="#000" fill-opacity="0.25"/>
<rect transform="matrix(-.602 .799 -.799 -.602 1789.6 1174.8)" width="391.87" height="391.87" fill="#000" fill-opacity="0.25"/>
<rect transform="matrix(.951 -.309 .309 .951 2094 546.83)" width="900.33" height="900.33" fill="#000" fill-opacity="0.25"/>
<rect transform="matrix(.875 -.485 .485 .875 1501.4 1559.1)" width="727" height="727" fill="#000" fill-opacity="0.25"/>
<rect transform="matrix(-.485 .875 -.875 -.485 3690.3 735.62)" width="1043.5" height="1043.5" fill="#000" fill-opacity="0.4"/>
<rect transform="translate(971.96 1081.4) rotate(43)" width="1384.7" height="1384.7" fill="#000" fill-opacity="0.4"/>
<rect transform="matrix(-.259 .966 -.966 -.259 2015.9 292.98)" width="1081.7" height="1081.7" fill="#000" fill-opacity="0.4"/>
</g>
</g>
</svg>
