<svg viewBox="0 0 152 35.949" xmlns="http://www.w3.org/2000/svg">
<g transform="translate(-143.79 -341.43)" fill="#fff">
<g transform="translate(143.79 341.43)">
<path transform="translate(-162.6 -341.43)" d="M199.889,355.117a16.414,16.414,0,0,0-.37-3.3,12.092,12.092,0,0,0-3.626-6.549,14.261,14.261,0,0,0-9.717-3.837H170.955l-.022,18.732h8.329l-.013-10.411h5.834a5.745,5.745,0,0,1,4.182,1.654,4.747,4.747,0,0,1,1.283,2.917c.026.256.038.509.042.761h0a4.837,4.837,0,0,1-4.315,5.025,12.174,12.174,0,0,1-2.032.053c-1.516.024-4.98,0-4.98,0v8.329h-8.329v8.329h8.329v-8.329s1.417.024,3,.024c1.1,0,2.253,0,3.026-.022a25.913,25.913,0,0,0,3.288-.262,14,14,0,0,0,5.5-2.125,11.844,11.844,0,0,0,4.173-4.578,13.234,13.234,0,0,0,1.637-6.412h0Z"/>
<path transform="translate(0 19.035)" d="M.026-.3H8.355L8.329,8.026H0Z"/>
</g>
<path transform="translate(181.89 347.47)" d="M0,2.279H8.456V29.347H0Z"/>
<path transform="translate(-111.33 -1.809)" d="M344.567,344.024H337l-.007,2.42a14.457,14.457,0,0,1-.151,1.957,3.741,3.741,0,0,1-3.661,3.157l-1.21,0h-9.148a.615.615,0,0,0-.516.279l-4.706,6.929-4.761-6.929a.615.615,0,0,0-.516-.279h-9.344l9.247,13.235-9.256,13.834h9.343a.615.615,0,0,0,.517-.28l4.769-7.379,4.7,7.379a.615.615,0,0,0,.517.28h9.343L322.819,364.8l8.561-12.387v6.148h4.858s-.007,7.795.006,11.459a11.719,11.719,0,0,0,.4,3.271,7.584,7.584,0,0,0,4.659,5.107,10.767,10.767,0,0,0,3.539.68,11.155,11.155,0,0,0,4.749-.642.45.45,0,0,0,.3-.427v-6.617l-.326.069a7.564,7.564,0,0,1-3,.095A2.084,2.084,0,0,1,344.737,370a6.389,6.389,0,0,1-.14-1.465c-.011-3.194-.006-9.811,0-9.982h5.352l-.027-7h-5.354Z"/>
<path transform="translate(-220.7 -16.274)" d="m481.55 366.64a16.56 16.56 0 0 0-14.837 0 12.928 12.928 0 0 0-5.213 5.037 16.234 16.234 0 0 0-0.025 15.212 12.839 12.839 0 0 0 5.163 5.012 15.428 15.428 0 0 0 7.393 1.754 15.729 15.729 0 0 0 7.443-1.754 13.046 13.046 0 0 0 5.263-5.037 14.706 14.706 0 0 0 1.929-7.594 14.861 14.861 0 0 0-1.9-7.594 12.933 12.933 0 0 0-5.216-5.036zm-7.418 19.538a6.932 6.932 0 1 1 6.341-6.907 6.642 6.642 0 0 1-6.341 6.908z"/>
<path transform="translate(-292.27 -16.064)" d="m585.57 368.18a9.843 9.843 0 0 0-7.569-3.08 10.1 10.1 0 0 0-4.629 1.043 8.085 8.085 0 0 0-3.152 2.807v-3.128h-8.117v27.062h8.4v-15.532a4.512 4.512 0 0 1 4.556-4.468 4.633 4.633 0 0 1 1.372 0.207 2.99 2.99 0 0 1 0.729 0.3 4.455 4.455 0 0 1 2.455 3.962s5e-3 1.083 5e-3 1.139v14.394h8.434v-16.243c1e-3 -3.588-0.658-6.409-2.484-8.463z"/>
</g>
</svg>
